<svg xmlns="http://www.w3.org/2000/svg" viewBox="0 0 512 512" role="img" aria-label="拳头减肥法图标">
  <rect width="512" height="512" rx="104" fill="#266c62"/>
  <circle cx="160" cy="174" r="58" fill="#fff5d9"/>
  <circle cx="232" cy="144" r="62" fill="#fff5d9"/>
  <circle cx="306" cy="152" r="58" fill="#fff5d9"/>
  <circle cx="364" cy="194" r="50" fill="#fff5d9"/>
  <path d="M124 208c17-16 39-22 66-18 23 3 42 13 57 29 19-20 48-30 79-24 50 9 86 52 86 104 0 66-53 119-119 119h-93c-61 0-111-50-111-111v-38c0-25 13-48 35-61z" fill="#fff5d9"/>
  <path d="M179 270h176" fill="none" stroke="#266c62" stroke-width="28" stroke-linecap="round"/>
  <path d="M201 337h126" fill="none" stroke="#266c62" stroke-width="28" stroke-linecap="round"/>
  <path d="M140 144l-20-31" stroke="#d95c46" stroke-width="24" stroke-linecap="round"/>
  <path d="M388 138l29-24" stroke="#d95c46" stroke-width="24" stroke-linecap="round"/>
</svg>
